<svg xmlns="http://www.w3.org/2000/svg" viewBox="0 0 288 78.61">
<defs>
	<style>.cls-1{fill:#fff;}</style>
</defs>
<g id="Layer_2" data-name="Layer 2">
	<g id="Layer_1-2" data-name="Layer 1">
	<path class="cls-1" d="M59,6l-.85-.41A53,53,0,0,0,43.08.9L42.2.76,40.43.53A79.58,79.58,0,0,0,30.92,0h0C20.16,0,11.5,1.78,3.66,5.59L2.81,6,0,7.37V40.09c0,.13,0,.26,0,.4v.07c0,.13,0,.26,0,.4v0c0,.15,0,.3,0,.46v.08c0,.16,0,.32,0,.49h0c0,.17,0,.35,0,.52v.07c0,.17,0,.35,0,.53v.07c0,.18,0,.37,0,.57l.06.57v.09c0,.2,0,.39.07.59v0c0,.19.05.39.08.59v.08c0,.2.06.41.1.61v.1c0,.2.07.4.1.61v0c0,.21.07.43.12.64l0,.12c0,.22.08.43.13.65v.05c0,.21.09.42.14.63l0,.11c0,.22.11.44.16.67l0,.11c.05.21.11.42.16.64l0,.06c.06.23.12.46.19.68l0,.15.21.69v.05c.07.22.14.44.22.66,0,.05,0,.09,0,.14l.24.69.05.12c.07.22.15.43.24.65l0,.09c.09.23.18.47.28.7l.06.15.3.71,0,.05.31.67.07.15c.11.23.22.47.34.7l.06.13.33.64.06.1.38.7.09.15c.13.24.27.47.41.7l0,0c.14.22.28.45.43.67l.09.15c.15.23.3.46.46.68l.08.12c.14.21.29.42.44.62a1,1,0,0,0,.08.11l.5.67.12.15.54.67,0,0c.18.22.37.44.56.65l.12.14.59.65.11.1c.18.2.37.39.56.58l.11.11.64.61.15.14.69.62A56.35,56.35,0,0,0,28.82,77.9s1.95.71,2.1.71h0c.15,0,2.1-.71,2.1-.71.27-.09,1.17-.41,2.52-1l.44-.19.47-.21.24-.12.51-.24.26-.12.55-.27.56-.29c.68-.34,1.4-.73,2.15-1.15a58.2,58.2,0,0,0,9.35-6.56h0c.24-.2.47-.41.69-.62l.15-.13.65-.62.1-.11.56-.57.11-.11.59-.64L53,64.8c.19-.21.38-.43.56-.65l0,0,.54-.67.12-.15c.17-.22.34-.44.5-.67a.44.44,0,0,0,.08-.11l.44-.61.09-.13.45-.68a1.3,1.3,0,0,1,.1-.15l.42-.67,0,0c.14-.23.28-.46.41-.7l.09-.16c.13-.23.26-.46.38-.69l.06-.1.33-.64.06-.13.34-.7.07-.15c.11-.22.21-.45.31-.67l0-.05.3-.71.06-.15.28-.7,0-.09c.09-.22.17-.43.24-.64l0-.14.24-.68s0-.1,0-.14c.08-.22.15-.44.22-.66V52.3l.21-.69,0-.15c.07-.22.13-.45.19-.68l0-.06c0-.22.11-.43.16-.64l0-.12c.06-.22.11-.44.16-.65l0-.12c0-.21.1-.42.14-.63v-.05c.05-.22.09-.43.13-.65l0-.12c0-.21.08-.43.11-.64v0c0-.2.07-.4.1-.6v-.1c0-.2.07-.41.1-.61v-.08c0-.2.05-.4.08-.59v0c0-.2.05-.39.07-.59v-.09l.06-.57c0-.2,0-.39.05-.57v-.07c0-.18,0-.36,0-.53v-.07c0-.35,0-.69.05-1v-.08c0-.16,0-.31,0-.46v0c0-.14,0-.27,0-.41v-.06c0-.14,0-.27,0-.4V7.38ZM19,9.29h1.61V7.85l.65-.26a13.64,13.64,0,0,1,5-.89,13.89,13.89,0,0,1,4.64.76,13.79,13.79,0,0,1,4.63-.76,13.64,13.64,0,0,1,5,.89l.65.26V9.29h1.61V20.45H19Zm-2.4,56c-.53-.42-1.06-.85-1.58-1.31l-.57-.5C8.13,57.66,6,49.88,5.29,44.37A11.32,11.32,0,0,0,9.49,43a7,7,0,0,1,6.94,0,11.26,11.26,0,0,0,11,0,7,7,0,0,1,6.93,0,11.26,11.26,0,0,0,11,0,7,7,0,0,1,6.94,0,11.32,11.32,0,0,0,4.2,1.36c-.69,5.51-2.84,13.29-9.17,19.1l-.56.5c-.54.46-1.07.91-1.61,1.33h0c-.48.38-1,.75-1.44,1.1l-3.1-3.1-1.1,1.1v2.89l1.18,1.18a47.75,47.75,0,0,1-9.33,4.7l-.49.17-.49-.17a48,48,0,0,1-9.34-4.7l1.18-1.18V64.4l-1.1-1.1-3.1,3.1h0c-.48-.36-1-.73-1.46-1.12M56.84,39.64c0,.17,0,.35,0,.55a7.51,7.51,0,0,1-2.45-.84,11.21,11.21,0,0,0-11,0,7,7,0,0,1-6.94,0,11.19,11.19,0,0,0-11,0,7,7,0,0,1-6.94,0,11.21,11.21,0,0,0-11,0A7.51,7.51,0,0,1,5,40.19c0-.2,0-.38,0-.55V36l7.82-8,7.35,7.42,10.76-11L41.67,35.49,49,28.07l7.81,8Z"/>
	<path class="cls-1" d="M101.71,9.58v15.8A9.11,9.11,0,0,1,100.57,30a7.38,7.38,0,0,1-3.28,3,11.54,11.54,0,0,1-5.06,1,10,10,0,0,1-7-2.29A8.13,8.13,0,0,1,82.7,25.5V9.58h5.85v16q.09,4,3.68,4a3.55,3.55,0,0,0,2.73-1,4.63,4.63,0,0,0,.93-3.23V9.58Z"/>
	<path class="cls-1" d="M127.81,33.72H122l-8.55-15v15h-5.82V9.58h5.82l8.54,15v-15h5.8Z"/>
	<path class="cls-1" d="M139.78,33.72H134V9.58h5.81Z"/>
	<path class="cls-1" d="M154.52,27.15l4.81-17.57h6.5L157.7,33.72h-6.36L143.28,9.58h6.45Z"/>
	<path class="cls-1" d="M184.3,23.47h-9.15v5.77H186v4.48H169.33V9.58H186v4.49H175.15v5.09h9.15Z"/>
	<path class="cls-1" d="M200.13,25.18H197v8.54h-5.82V9.58h9.5a10.62,10.62,0,0,1,6.72,1.9,6.48,6.48,0,0,1,2.42,5.39,7.81,7.81,0,0,1-1,4.17,7.21,7.21,0,0,1-3.19,2.68l5,9.75v.25h-6.24ZM197,20.7h3.68a3.32,3.32,0,0,0,2.5-.87A3.35,3.35,0,0,0,204,17.4a3.45,3.45,0,0,0-.85-2.46,3.27,3.27,0,0,0-2.49-.88H197Z"/>
	<path class="cls-1" d="M218.8,57.17h-9.16v5.77h10.81v4.48H203.83V43.28h16.66v4.49H209.64v5.09h9.16Z"/>
	<path class="cls-1" d="M234.68,58.88h-3.15v8.54h-5.82V43.28h9.5a10.58,10.58,0,0,1,6.71,1.9,6.47,6.47,0,0,1,2.42,5.38,7.87,7.87,0,0,1-1,4.18,7.21,7.21,0,0,1-3.19,2.68l5,9.75v.25h-6.23Zm-3.15-4.48h3.68a3.31,3.31,0,0,0,2.49-.87,3.36,3.36,0,0,0,.84-2.44,3.4,3.4,0,0,0-.85-2.45,3.27,3.27,0,0,0-2.48-.89h-3.68Z"/>
	<path class="cls-1" d="M226.88,27.3a2.4,2.4,0,0,0-.9-2,11.38,11.38,0,0,0-3.18-1.47,30,30,0,0,1-3.71-1.48C216,20.83,214.4,18.71,214.4,16a5.67,5.67,0,0,1,1.17-3.54,7.6,7.6,0,0,1,3.3-2.39,12.88,12.88,0,0,1,4.81-.85,11.25,11.25,0,0,1,4.67.93,7.38,7.38,0,0,1,3.21,2.64,6.91,6.91,0,0,1,1.14,3.92h-5.8a2.92,2.92,0,0,0-.91-2.29,3.51,3.51,0,0,0-2.44-.81,4,4,0,0,0-2.46.69,2.1,2.1,0,0,0-.91,1.75,2.13,2.13,0,0,0,1,1.68,12.7,12.7,0,0,0,3.5,1.56,21.52,21.52,0,0,1,4.11,1.73q3.92,2.26,3.91,6.22a5.86,5.86,0,0,1-2.39,5,10.57,10.57,0,0,1-6.55,1.81,13,13,0,0,1-5.31-1,8,8,0,0,1-3.58-2.89,7.51,7.51,0,0,1-1.2-4.22h5.83a3.68,3.68,0,0,0,1,2.86,4.69,4.69,0,0,0,3.25.92,3.68,3.68,0,0,0,2.28-.62A2,2,0,0,0,226.88,27.3Z"/>
	<path class="cls-1" d="M243.21,33.72h-5.8V9.58h5.8Z"/>
	<polygon class="cls-1" points="281.71 9.58 276.37 20.06 271.01 9.58 246.71 9.58 246.71 14.07 253.82 14.07 253.82 33.72 259.64 33.72 259.64 14.07 267.27 14.07 273.42 25.05 273.42 33.72 279.32 33.72 279.32 25.05 288 9.58 281.71 9.58"/>
	<path class="cls-1" d="M103,55.84a14.33,14.33,0,0,1-1.31,6.26,9.74,9.74,0,0,1-3.73,4.18,10.32,10.32,0,0,1-5.49,1.47A10.45,10.45,0,0,1,87,66.33a9.7,9.7,0,0,1-3.73-4,14.07,14.07,0,0,1-1.4-6.05V54.87a14.24,14.24,0,0,1,1.31-6.26,9.58,9.58,0,0,1,3.73-4.19,11.09,11.09,0,0,1,11,0,9.89,9.89,0,0,1,3.74,4.16A13.83,13.83,0,0,1,103,54.73Zm-5.92-1a10.14,10.14,0,0,0-1.2-5.46,3.88,3.88,0,0,0-3.44-1.87q-4.38,0-4.63,6.57l0,1.77a10.49,10.49,0,0,0,1.18,5.46,4.09,4.09,0,0,0,6.9,0A10.19,10.19,0,0,0,97,55.94Z"/>
	<path class="cls-1" d="M123.21,57.8h-9.38v9.62H108V43.28h16.15v4.49H113.83v5.55h9.38Z"/>
	<path class="cls-1" d="M150.65,62.91h-8l-1.39,4.51h-6.67l9.3-24.14h5.47l8.92,24.14h-6.25Zm-6.58-4.5h5.19L146.66,50Z"/>
	<path class="cls-1" d="M167.21,62.94h10.13v4.48h-16V43.28h5.82Z"/>
	<path class="cls-1" d="M181.09,67.42V43.28h8.67c3.1,0,5.47.57,7.08,1.7a6.31,6.31,0,0,1,1.57,8.16,5,5,0,0,1-2.54,2A5.07,5.07,0,0,1,198.78,57a5.4,5.4,0,0,1,1,3.31,6.38,6.38,0,0,1-2.25,5.33q-2.25,1.79-6.66,1.82Zm5.81-14.08h3a4.27,4.27,0,0,0,2.72-.7,2.47,2.47,0,0,0,.81-2,2.59,2.59,0,0,0-.88-2.2,4.67,4.67,0,0,0-2.83-.68H186.9Zm0,3.81v5.79h3.82a3.62,3.62,0,0,0,2.42-.72,2.53,2.53,0,0,0,.84-2,2.68,2.68,0,0,0-3-3Z"/>
	<path class="cls-1" d="M266.89,47.77h-7.25V67.42h-5.82V47.77h-7.11V43.28h20.18Z"/>
	<path class="cls-1" d="M280.34,62.91h-8L271,67.42h-6.22l8.86-24.14h5.47L288,67.42h-6.25Zm-6.58-4.5H279L276.34,50Z"/>
	<polygon class="cls-1" points="30.91 50.52 27.64 47.26 26.54 48.36 26.54 51.24 30.91 55.61 35.29 51.24 35.29 48.36 34.19 47.26 30.91 50.52"/>
	<polygon class="cls-1" points="30.91 58.55 27.64 55.28 26.54 56.38 26.54 59.26 28.37 61.09 30.91 63.63 33.46 61.09 35.29 59.26 35.29 56.38 34.19 55.28 30.91 58.55"/>
	<polygon class="cls-1" points="30.91 66.57 27.64 63.3 26.54 64.41 26.54 67.29 28.37 69.12 30.91 71.66 33.46 69.12 35.29 67.29 35.29 64.41 34.19 63.3 30.91 66.57"/>
	<polygon class="cls-1" points="43.93 50.52 40.66 47.26 39.56 48.36 39.56 51.24 43.93 55.61 48.3 51.24 48.3 48.36 47.2 47.26 43.93 50.52"/>
	<polygon class="cls-1" points="43.93 58.55 40.66 55.28 39.56 56.38 39.56 59.26 41.39 61.09 43.93 63.63 46.47 61.09 48.3 59.26 48.3 56.38 47.2 55.28 43.93 58.55"/>
	<polygon class="cls-1" points="17.9 50.52 14.63 47.26 13.53 48.36 13.53 51.24 17.9 55.61 22.27 51.24 22.27 48.36 21.17 47.26 17.9 50.52"/>
	<polygon class="cls-1" points="17.9 58.55 14.63 55.28 13.53 56.38 13.53 59.26 15.36 61.09 17.9 63.63 20.44 61.09 22.27 59.26 22.27 56.38 21.17 55.28 17.9 58.55"/>
	<path class="cls-1" d="M22.68,9.27v8.56a15,15,0,0,1,7.21,0V9.27A13.37,13.37,0,0,0,22.68,9.27Z"/>
	<path class="cls-1" d="M31.94,9.27v8.56a15,15,0,0,1,7.21,0V9.27A13.37,13.37,0,0,0,31.94,9.27Z"/>
	</g>
</g>
</svg>